<svg width="186" height="90" viewBox="0 0 186 90" fill="none" xmlns="http://www.w3.org/2000/svg">
<g filter="url(#filter0_d_609_17308)">
<path d="M10 34C10 17.4315 23.4315 4 40 4H146C162.569 4 176 17.4315 176 34V74H40C23.4315 74 10 60.5685 10 44V34Z" fill="#444DF2" shape-rendering="crispEdges"/>
<path d="M41.848 46.176C41.496 46.176 41.21 46.0953 40.99 45.934C40.7847 45.7727 40.66 45.56 40.616 45.296C40.572 45.0173 40.6233 44.7093 40.77 44.372L46.578 31.502C46.7687 31.0767 46.996 30.776 47.26 30.6C47.5387 30.4093 47.854 30.314 48.206 30.314C48.5433 30.314 48.844 30.4093 49.108 30.6C49.3867 30.776 49.6213 31.0767 49.812 31.502L55.642 44.372C55.8033 44.7093 55.862 45.0173 55.818 45.296C55.774 45.5747 55.6493 45.7947 55.444 45.956C55.2387 46.1027 54.9673 46.176 54.63 46.176C54.2193 46.176 53.8967 46.0807 53.662 45.89C53.442 45.6847 53.244 45.3767 53.068 44.966L51.638 41.644L52.826 42.414H43.542L44.73 41.644L43.322 44.966C43.1313 45.3913 42.9333 45.6993 42.728 45.89C42.5227 46.0807 42.2293 46.176 41.848 46.176ZM48.162 33.548L45.082 40.874L44.51 40.17H51.858L51.308 40.874L48.206 33.548H48.162ZM59.1651 46.176C58.7251 46.176 58.3878 46.0587 58.1531 45.824C57.9184 45.5747 57.8011 45.2227 57.8011 44.768V36.452C57.8011 35.9973 57.9184 35.6527 58.1531 35.418C58.3878 35.1833 58.7178 35.066 59.1431 35.066C59.5684 35.066 59.8984 35.1833 60.1331 35.418C60.3678 35.6527 60.4851 35.9973 60.4851 36.452V37.948L60.2431 37.398C60.5658 36.6207 61.0644 36.034 61.7391 35.638C62.4284 35.2273 63.2058 35.022 64.0711 35.022C64.9364 35.022 65.6478 35.1833 66.2051 35.506C66.7624 35.8287 67.1804 36.32 67.4591 36.98C67.7378 37.6253 67.8771 38.4467 67.8771 39.444V44.768C67.8771 45.2227 67.7598 45.5747 67.5251 45.824C67.2904 46.0587 66.9531 46.176 66.5131 46.176C66.0731 46.176 65.7284 46.0587 65.4791 45.824C65.2444 45.5747 65.1271 45.2227 65.1271 44.768V39.576C65.1271 38.74 64.9658 38.1313 64.6431 37.75C64.3351 37.3687 63.8511 37.178 63.1911 37.178C62.3844 37.178 61.7391 37.4347 61.2551 37.948C60.7858 38.4467 60.5511 39.114 60.5511 39.95V44.768C60.5511 45.7067 60.0891 46.176 59.1651 46.176ZM72.0782 46.176C71.6382 46.176 71.3009 46.0587 71.0662 45.824C70.8316 45.5747 70.7142 45.2227 70.7142 44.768V36.452C70.7142 35.9973 70.8316 35.6527 71.0662 35.418C71.3009 35.1833 71.6309 35.066 72.0562 35.066C72.4816 35.066 72.8116 35.1833 73.0462 35.418C73.2809 35.6527 73.3982 35.9973 73.3982 36.452V38.058L73.1562 37.398C73.4496 36.6647 73.9042 36.0853 74.5202 35.66C75.1362 35.2347 75.8696 35.022 76.7202 35.022C77.5856 35.022 78.2969 35.2273 78.8542 35.638C79.4116 36.0487 79.8002 36.6793 80.0202 37.53H79.7122C80.0056 36.7527 80.4896 36.144 81.1642 35.704C81.8389 35.2493 82.6162 35.022 83.4962 35.022C84.3176 35.022 84.9922 35.1833 85.5202 35.506C86.0629 35.8287 86.4662 36.32 86.7302 36.98C86.9942 37.6253 87.1262 38.4467 87.1262 39.444V44.768C87.1262 45.2227 87.0016 45.5747 86.7522 45.824C86.5176 46.0587 86.1802 46.176 85.7402 46.176C85.3002 46.176 84.9629 46.0587 84.7282 45.824C84.4936 45.5747 84.3762 45.2227 84.3762 44.768V39.554C84.3762 38.7327 84.2369 38.1313 83.9582 37.75C83.6942 37.3687 83.2396 37.178 82.5942 37.178C81.8756 37.178 81.3109 37.4347 80.9002 37.948C80.4896 38.4467 80.2842 39.1433 80.2842 40.038V44.768C80.2842 45.2227 80.1669 45.5747 79.9322 45.824C79.6976 46.0587 79.3602 46.176 78.9202 46.176C78.4802 46.176 78.1356 46.0587 77.8862 45.824C77.6516 45.5747 77.5342 45.2227 77.5342 44.768V39.554C77.5342 38.7327 77.3949 38.1313 77.1162 37.75C76.8522 37.3687 76.4049 37.178 75.7742 37.178C75.0556 37.178 74.4909 37.4347 74.0802 37.948C73.6696 38.4467 73.4642 39.1433 73.4642 40.038V44.768C73.4642 45.7067 73.0022 46.176 72.0782 46.176ZM95.2652 46.22C94.0479 46.22 92.9992 45.9927 92.1192 45.538C91.2392 45.0833 90.5572 44.438 90.0732 43.602C89.6039 42.766 89.3692 41.776 89.3692 40.632C89.3692 39.5173 89.5965 38.542 90.0512 37.706C90.5205 36.87 91.1585 36.2173 91.9652 35.748C92.7865 35.264 93.7179 35.022 94.7592 35.022C95.5219 35.022 96.2039 35.1467 96.8052 35.396C97.4212 35.6453 97.9419 36.0047 98.3672 36.474C98.8072 36.9433 99.1372 37.5153 99.3572 38.19C99.5919 38.85 99.7092 39.598 99.7092 40.434C99.7092 40.698 99.6139 40.9033 99.4232 41.05C99.2472 41.182 98.9905 41.248 98.6532 41.248H91.5912V39.664H97.7732L97.4212 39.994C97.4212 39.3193 97.3185 38.7547 97.1132 38.3C96.9225 37.8453 96.6365 37.5007 96.2552 37.266C95.8885 37.0167 95.4265 36.892 94.8692 36.892C94.2532 36.892 93.7252 37.0387 93.2852 37.332C92.8599 37.6107 92.5299 38.014 92.2952 38.542C92.0752 39.0553 91.9652 39.6713 91.9652 40.39V40.544C91.9652 41.7467 92.2439 42.6487 92.8012 43.25C93.3732 43.8367 94.2092 44.13 95.3092 44.13C95.6905 44.13 96.1159 44.086 96.5852 43.998C97.0692 43.8953 97.5239 43.7267 97.9492 43.492C98.2572 43.316 98.5285 43.2427 98.7632 43.272C98.9979 43.2867 99.1812 43.3673 99.3132 43.514C99.4599 43.6607 99.5479 43.844 99.5772 44.064C99.6065 44.2693 99.5625 44.482 99.4452 44.702C99.3425 44.922 99.1592 45.1127 98.8952 45.274C98.3819 45.5967 97.7879 45.8387 97.1132 46C96.4532 46.1467 95.8372 46.22 95.2652 46.22ZM105.561 46.22C104.344 46.22 103.427 45.8753 102.811 45.186C102.195 44.482 101.887 43.4553 101.887 42.106V31.7C101.887 31.2453 102.004 30.9007 102.239 30.666C102.474 30.4313 102.811 30.314 103.251 30.314C103.691 30.314 104.028 30.4313 104.263 30.666C104.512 30.9007 104.637 31.2453 104.637 31.7V41.974C104.637 42.6487 104.776 43.1473 105.055 43.47C105.348 43.7927 105.759 43.954 106.287 43.954C106.404 43.954 106.514 43.954 106.617 43.954C106.72 43.9393 106.822 43.9247 106.925 43.91C107.13 43.8807 107.27 43.9393 107.343 44.086C107.416 44.218 107.453 44.4967 107.453 44.922C107.453 45.2887 107.38 45.5747 107.233 45.78C107.086 45.9853 106.844 46.11 106.507 46.154C106.36 46.1687 106.206 46.1833 106.045 46.198C105.884 46.2127 105.722 46.22 105.561 46.22ZM112.941 46.22C112.002 46.22 111.174 45.9927 110.455 45.538C109.751 45.0833 109.201 44.438 108.805 43.602C108.409 42.7513 108.211 41.754 108.211 40.61C108.211 39.4513 108.409 38.4613 108.805 37.64C109.201 36.804 109.751 36.1587 110.455 35.704C111.174 35.2493 112.002 35.022 112.941 35.022C113.836 35.022 114.613 35.242 115.273 35.682C115.948 36.122 116.402 36.7013 116.637 37.42H116.395V31.7C116.395 31.2453 116.512 30.9007 116.747 30.666C116.982 30.4313 117.319 30.314 117.759 30.314C118.199 30.314 118.536 30.4313 118.771 30.666C119.02 30.9007 119.145 31.2453 119.145 31.7V44.768C119.145 45.2227 119.028 45.5747 118.793 45.824C118.558 46.0587 118.221 46.176 117.781 46.176C117.341 46.176 117.004 46.0587 116.769 45.824C116.534 45.5747 116.417 45.2227 116.417 44.768V43.052L116.659 43.712C116.439 44.4747 115.992 45.0833 115.317 45.538C114.642 45.9927 113.85 46.22 112.941 46.22ZM113.711 44.13C114.254 44.13 114.73 43.998 115.141 43.734C115.552 43.47 115.867 43.0813 116.087 42.568C116.322 42.04 116.439 41.3873 116.439 40.61C116.439 39.4367 116.19 38.564 115.691 37.992C115.192 37.4053 114.532 37.112 113.711 37.112C113.168 37.112 112.692 37.244 112.281 37.508C111.87 37.7573 111.548 38.146 111.313 38.674C111.093 39.1873 110.983 39.8327 110.983 40.61C110.983 41.7687 111.232 42.6487 111.731 43.25C112.23 43.8367 112.89 44.13 113.711 44.13ZM127.298 46.22C126.081 46.22 125.032 45.9927 124.152 45.538C123.272 45.0833 122.59 44.438 122.106 43.602C121.637 42.766 121.402 41.776 121.402 40.632C121.402 39.5173 121.63 38.542 122.084 37.706C122.554 36.87 123.192 36.2173 123.998 35.748C124.82 35.264 125.751 35.022 126.792 35.022C127.555 35.022 128.237 35.1467 128.838 35.396C129.454 35.6453 129.975 36.0047 130.4 36.474C130.84 36.9433 131.17 37.5153 131.39 38.19C131.625 38.85 131.742 39.598 131.742 40.434C131.742 40.698 131.647 40.9033 131.456 41.05C131.28 41.182 131.024 41.248 130.686 41.248H123.624V39.664H129.806L129.454 39.994C129.454 39.3193 129.352 38.7547 129.146 38.3C128.956 37.8453 128.67 37.5007 128.288 37.266C127.922 37.0167 127.46 36.892 126.902 36.892C126.286 36.892 125.758 37.0387 125.318 37.332C124.893 37.6107 124.563 38.014 124.328 38.542C124.108 39.0553 123.998 39.6713 123.998 40.39V40.544C123.998 41.7467 124.277 42.6487 124.834 43.25C125.406 43.8367 126.242 44.13 127.342 44.13C127.724 44.13 128.149 44.086 128.618 43.998C129.102 43.8953 129.557 43.7267 129.982 43.492C130.29 43.316 130.562 43.2427 130.796 43.272C131.031 43.2867 131.214 43.3673 131.346 43.514C131.493 43.6607 131.581 43.844 131.61 44.064C131.64 44.2693 131.596 44.482 131.478 44.702C131.376 44.922 131.192 45.1127 130.928 45.274C130.415 45.5967 129.821 45.8387 129.146 46C128.486 46.1467 127.87 46.22 127.298 46.22ZM135.284 46.176C134.844 46.176 134.507 46.0587 134.272 45.824C134.038 45.5747 133.92 45.2227 133.92 44.768V36.452C133.92 35.9973 134.038 35.6527 134.272 35.418C134.507 35.1833 134.837 35.066 135.262 35.066C135.688 35.066 136.018 35.1833 136.252 35.418C136.487 35.6527 136.604 35.9973 136.604 36.452V37.948L136.362 37.398C136.685 36.6207 137.184 36.034 137.858 35.638C138.548 35.2273 139.325 35.022 140.19 35.022C141.056 35.022 141.767 35.1833 142.324 35.506C142.882 35.8287 143.3 36.32 143.578 36.98C143.857 37.6253 143.996 38.4467 143.996 39.444V44.768C143.996 45.2227 143.879 45.5747 143.644 45.824C143.41 46.0587 143.072 46.176 142.632 46.176C142.192 46.176 141.848 46.0587 141.598 45.824C141.364 45.5747 141.246 45.2227 141.246 44.768V39.576C141.246 38.74 141.085 38.1313 140.762 37.75C140.454 37.3687 139.97 37.178 139.31 37.178C138.504 37.178 137.858 37.4347 137.374 37.948C136.905 38.4467 136.67 39.114 136.67 39.95V44.768C136.67 45.7067 136.208 46.176 135.284 46.176Z" fill="white"/>
</g>
<defs>
<filter id="filter0_d_609_17308" x="0" y="0" width="186" height="90" filterUnits="userSpaceOnUse" color-interpolation-filters="sRGB">
<feFlood flood-opacity="0" result="BackgroundImageFix"/>
<feColorMatrix in="SourceAlpha" type="matrix" values="0 0 0 0 0 0 0 0 0 0 0 0 0 0 0 0 0 0 127 0" result="hardAlpha"/>
<feOffset dy="6"/>
<feGaussianBlur stdDeviation="5"/>
<feComposite in2="hardAlpha" operator="out"/>
<feColorMatrix type="matrix" values="0 0 0 0 0 0 0 0 0 0 0 0 0 0 0 0 0 0 0.2 0"/>
<feBlend mode="normal" in2="BackgroundImageFix" result="effect1_dropShadow_609_17308"/>
<feBlend mode="normal" in="SourceGraphic" in2="effect1_dropShadow_609_17308" result="shape"/>
</filter>
</defs>
</svg>
