<svg width="289" height="90" viewBox="0 0 289 90" fill="none" xmlns="http://www.w3.org/2000/svg">
<g filter="url(#filter0_d_609_17303)">
<path d="M10 34C10 17.4315 23.4315 4 40 4H249C265.569 4 279 17.4315 279 34V74H40C23.4315 74 10 60.5685 10 44V34Z" fill="#444DF2" shape-rendering="crispEdges"/>
<mask id="mask0_609_17303" style="mask-type:alpha" maskUnits="userSpaceOnUse" x="40" y="27" width="24" height="24">
<rect x="40" y="27" width="24" height="24" fill="#D9D9D9"/>
</mask>
<g mask="url(#mask0_609_17303)">
<path d="M42.55 48.0651C42.1334 48.2317 41.7375 48.1951 41.3625 47.9551C40.9875 47.7159 40.8 47.3672 40.8 46.9088V42.2526C40.8 41.9609 40.8834 41.7005 41.05 41.4713C41.2167 41.2422 41.4459 41.0963 41.7375 41.0338L50.8 38.7838L41.7375 36.5338C41.4459 36.4713 41.2167 36.3255 41.05 36.0963C40.8834 35.8672 40.8 35.6067 40.8 35.3151V30.6588C40.8 30.2005 40.9875 29.8513 41.3625 29.6113C41.7375 29.3722 42.1334 29.3359 42.55 29.5026L61.8 37.6276C62.3209 37.8567 62.5813 38.2422 62.5813 38.7838C62.5813 39.3255 62.3209 39.7109 61.8 39.9401L42.55 48.0651Z" fill="white"/>
</g>
<path d="M85.19 46C84.706 46 84.332 45.8753 84.068 45.626C83.8187 45.362 83.694 44.988 83.694 44.504V31.986C83.694 31.502 83.8187 31.1353 84.068 30.886C84.332 30.622 84.706 30.49 85.19 30.49H93.044C93.4107 30.49 93.6893 30.5853 93.88 30.776C94.0853 30.9667 94.188 31.238 94.188 31.59C94.188 31.9567 94.0853 32.2427 93.88 32.448C93.6893 32.6387 93.4107 32.734 93.044 32.734H86.4V37.002H92.56C92.9413 37.002 93.2273 37.0973 93.418 37.288C93.6087 37.4787 93.704 37.7573 93.704 38.124C93.704 38.4907 93.6087 38.7693 93.418 38.96C93.2273 39.1507 92.9413 39.246 92.56 39.246H86.4V43.756H93.044C93.4107 43.756 93.6893 43.8513 93.88 44.042C94.0853 44.2327 94.188 44.5113 94.188 44.878C94.188 45.2447 94.0853 45.5233 93.88 45.714C93.6893 45.9047 93.4107 46 93.044 46H85.19ZM97.526 41.204C97.2033 41.204 96.932 41.1013 96.712 40.896C96.5067 40.676 96.404 40.412 96.404 40.104C96.404 39.7813 96.5067 39.5173 96.712 39.312C96.932 39.1067 97.2033 39.004 97.526 39.004H102.212C102.52 39.004 102.777 39.1067 102.982 39.312C103.202 39.5173 103.312 39.7813 103.312 40.104C103.312 40.412 103.202 40.676 102.982 40.896C102.777 41.1013 102.52 41.204 102.212 41.204H97.526ZM107.637 46.176C107.226 46.176 106.911 46.0587 106.691 45.824C106.471 45.5893 106.361 45.2667 106.361 44.856V31.634C106.361 31.2087 106.478 30.886 106.713 30.666C106.948 30.4313 107.27 30.314 107.681 30.314C108.048 30.314 108.334 30.3873 108.539 30.534C108.759 30.666 108.957 30.9007 109.133 31.238L114.567 41.292H113.863L119.297 31.238C119.473 30.9007 119.664 30.666 119.869 30.534C120.074 30.3873 120.36 30.314 120.727 30.314C121.138 30.314 121.453 30.4313 121.673 30.666C121.893 30.886 122.003 31.2087 122.003 31.634V44.856C122.003 45.2667 121.893 45.5893 121.673 45.824C121.468 46.0587 121.152 46.176 120.727 46.176C120.316 46.176 120.001 46.0587 119.781 45.824C119.561 45.5893 119.451 45.2667 119.451 44.856V34.67H119.935L115.315 43.096C115.168 43.3453 115.014 43.5287 114.853 43.646C114.692 43.7633 114.472 43.822 114.193 43.822C113.914 43.822 113.687 43.7633 113.511 43.646C113.335 43.514 113.181 43.3307 113.049 43.096L108.385 34.648H108.913V44.856C108.913 45.2667 108.803 45.5893 108.583 45.824C108.378 46.0587 108.062 46.176 107.637 46.176ZM128.695 46.22C127.917 46.22 127.221 46.0733 126.605 45.78C126.003 45.472 125.527 45.0613 125.175 44.548C124.837 44.0347 124.669 43.4553 124.669 42.81C124.669 42.018 124.874 41.3947 125.285 40.94C125.695 40.4707 126.363 40.1333 127.287 39.928C128.211 39.7227 129.45 39.62 131.005 39.62H132.105V41.204H131.027C130.117 41.204 129.391 41.248 128.849 41.336C128.306 41.424 127.917 41.578 127.683 41.798C127.463 42.0033 127.353 42.2967 127.353 42.678C127.353 43.162 127.521 43.558 127.859 43.866C128.196 44.174 128.665 44.328 129.267 44.328C129.751 44.328 130.176 44.218 130.543 43.998C130.924 43.7633 131.225 43.448 131.445 43.052C131.665 42.656 131.775 42.2013 131.775 41.688V39.158C131.775 38.4247 131.613 37.8967 131.291 37.574C130.968 37.2513 130.425 37.09 129.663 37.09C129.237 37.09 128.775 37.1413 128.277 37.244C127.793 37.3467 127.279 37.5227 126.737 37.772C126.458 37.904 126.209 37.9407 125.989 37.882C125.783 37.8233 125.622 37.706 125.505 37.53C125.387 37.3393 125.329 37.134 125.329 36.914C125.329 36.694 125.387 36.4813 125.505 36.276C125.622 36.056 125.82 35.8947 126.099 35.792C126.773 35.5133 127.419 35.3153 128.035 35.198C128.665 35.0807 129.237 35.022 129.751 35.022C130.807 35.022 131.672 35.1833 132.347 35.506C133.036 35.8287 133.549 36.32 133.887 36.98C134.224 37.6253 134.393 38.4613 134.393 39.488V44.768C134.393 45.2227 134.283 45.5747 134.063 45.824C133.843 46.0587 133.527 46.176 133.117 46.176C132.706 46.176 132.383 46.0587 132.149 45.824C131.929 45.5747 131.819 45.2227 131.819 44.768V43.712H131.995C131.892 44.2253 131.687 44.6727 131.379 45.054C131.085 45.4207 130.711 45.7067 130.257 45.912C129.802 46.1173 129.281 46.22 128.695 46.22ZM138.548 46.154C138.108 46.154 137.771 46.022 137.536 45.758C137.301 45.494 137.184 45.1273 137.184 44.658V36.584C137.184 36.1 137.301 35.7333 137.536 35.484C137.771 35.22 138.108 35.088 138.548 35.088C138.988 35.088 139.325 35.22 139.56 35.484C139.809 35.7333 139.934 36.1 139.934 36.584V44.658C139.934 45.1273 139.817 45.494 139.582 45.758C139.347 46.022 139.003 46.154 138.548 46.154ZM138.548 33.042C138.035 33.042 137.631 32.9173 137.338 32.668C137.059 32.404 136.92 32.0447 136.92 31.59C136.92 31.1207 137.059 30.7613 137.338 30.512C137.631 30.2627 138.035 30.138 138.548 30.138C139.076 30.138 139.479 30.2627 139.758 30.512C140.037 30.7613 140.176 31.1207 140.176 31.59C140.176 32.0447 140.037 32.404 139.758 32.668C139.479 32.9173 139.076 33.042 138.548 33.042ZM146.465 46.22C145.248 46.22 144.331 45.8753 143.715 45.186C143.099 44.482 142.791 43.4553 142.791 42.106V31.7C142.791 31.2453 142.909 30.9007 143.143 30.666C143.378 30.4313 143.715 30.314 144.155 30.314C144.595 30.314 144.933 30.4313 145.167 30.666C145.417 30.9007 145.541 31.2453 145.541 31.7V41.974C145.541 42.6487 145.681 43.1473 145.959 43.47C146.253 43.7927 146.663 43.954 147.191 43.954C147.309 43.954 147.419 43.954 147.521 43.954C147.624 43.9393 147.727 43.9247 147.829 43.91C148.035 43.8807 148.174 43.9393 148.247 44.086C148.321 44.218 148.357 44.4967 148.357 44.922C148.357 45.2887 148.284 45.5747 148.137 45.78C147.991 45.9853 147.749 46.11 147.411 46.154C147.265 46.1687 147.111 46.1833 146.949 46.198C146.788 46.2127 146.627 46.22 146.465 46.22ZM160.805 50.18C160.013 50.18 159.243 50.1067 158.495 49.96C157.762 49.8133 157.095 49.586 156.493 49.278C156.215 49.1313 156.024 48.9553 155.921 48.75C155.833 48.5447 155.804 48.332 155.833 48.112C155.877 47.9067 155.965 47.7233 156.097 47.562C156.244 47.4007 156.42 47.2907 156.625 47.232C156.831 47.1733 157.043 47.2027 157.263 47.32C157.909 47.6427 158.517 47.848 159.089 47.936C159.676 48.0387 160.175 48.09 160.585 48.09C161.568 48.09 162.301 47.848 162.785 47.364C163.284 46.8947 163.533 46.1907 163.533 45.252V43.272H163.731C163.511 44.02 163.049 44.6213 162.345 45.076C161.656 45.516 160.871 45.736 159.991 45.736C159.023 45.736 158.18 45.516 157.461 45.076C156.743 44.6213 156.185 43.9907 155.789 43.184C155.393 42.3773 155.195 41.4387 155.195 40.368C155.195 39.5613 155.305 38.8353 155.525 38.19C155.76 37.53 156.083 36.9653 156.493 36.496C156.919 36.0267 157.425 35.6673 158.011 35.418C158.613 35.154 159.273 35.022 159.991 35.022C160.901 35.022 161.693 35.2493 162.367 35.704C163.057 36.144 163.504 36.7307 163.709 37.464L163.489 38.014V36.452C163.489 35.9973 163.607 35.6527 163.841 35.418C164.091 35.1833 164.428 35.066 164.853 35.066C165.293 35.066 165.631 35.1833 165.865 35.418C166.1 35.6527 166.217 35.9973 166.217 36.452V44.922C166.217 46.6673 165.755 47.98 164.831 48.86C163.907 49.74 162.565 50.18 160.805 50.18ZM160.739 43.646C161.311 43.646 161.803 43.514 162.213 43.25C162.624 42.986 162.939 42.612 163.159 42.128C163.394 41.6293 163.511 41.0427 163.511 40.368C163.511 39.356 163.262 38.564 162.763 37.992C162.265 37.4053 161.59 37.112 160.739 37.112C160.167 37.112 159.676 37.244 159.265 37.508C158.855 37.772 158.532 38.146 158.297 38.63C158.077 39.114 157.967 39.6933 157.967 40.368C157.967 41.38 158.217 42.1793 158.715 42.766C159.214 43.3527 159.889 43.646 160.739 43.646ZM174.369 46.22C173.151 46.22 172.103 45.9927 171.223 45.538C170.343 45.0833 169.661 44.438 169.177 43.602C168.707 42.766 168.473 41.776 168.473 40.632C168.473 39.5173 168.7 38.542 169.155 37.706C169.624 36.87 170.262 36.2173 171.069 35.748C171.89 35.264 172.821 35.022 173.863 35.022C174.625 35.022 175.307 35.1467 175.909 35.396C176.525 35.6453 177.045 36.0047 177.471 36.474C177.911 36.9433 178.241 37.5153 178.461 38.19C178.695 38.85 178.813 39.598 178.813 40.434C178.813 40.698 178.717 40.9033 178.527 41.05C178.351 41.182 178.094 41.248 177.757 41.248H170.695V39.664H176.877L176.525 39.994C176.525 39.3193 176.422 38.7547 176.217 38.3C176.026 37.8453 175.74 37.5007 175.359 37.266C174.992 37.0167 174.53 36.892 173.973 36.892C173.357 36.892 172.829 37.0387 172.389 37.332C171.963 37.6107 171.633 38.014 171.399 38.542C171.179 39.0553 171.069 39.6713 171.069 40.39V40.544C171.069 41.7467 171.347 42.6487 171.905 43.25C172.477 43.8367 173.313 44.13 174.413 44.13C174.794 44.13 175.219 44.086 175.689 43.998C176.173 43.8953 176.627 43.7267 177.053 43.492C177.361 43.316 177.632 43.2427 177.867 43.272C178.101 43.2867 178.285 43.3673 178.417 43.514C178.563 43.6607 178.651 43.844 178.681 44.064C178.71 44.2693 178.666 44.482 178.549 44.702C178.446 44.922 178.263 45.1127 177.999 45.274C177.485 45.5967 176.891 45.8387 176.217 46C175.557 46.1467 174.941 46.22 174.369 46.22ZM184.929 46.22C184.298 46.22 183.631 46.154 182.927 46.022C182.223 45.89 181.592 45.6627 181.035 45.34C180.8 45.1933 180.631 45.0247 180.529 44.834C180.441 44.6287 180.404 44.4307 180.419 44.24C180.448 44.0347 180.521 43.8587 180.639 43.712C180.771 43.5653 180.932 43.47 181.123 43.426C181.328 43.382 181.548 43.4187 181.783 43.536C182.369 43.8147 182.919 44.0127 183.433 44.13C183.946 44.2327 184.452 44.284 184.951 44.284C185.655 44.284 186.175 44.1667 186.513 43.932C186.865 43.6827 187.041 43.36 187.041 42.964C187.041 42.6267 186.923 42.37 186.689 42.194C186.469 42.0033 186.131 41.864 185.677 41.776L183.477 41.358C182.567 41.182 181.871 40.852 181.387 40.368C180.917 39.8693 180.683 39.2313 180.683 38.454C180.683 37.75 180.873 37.1413 181.255 36.628C181.651 36.1147 182.193 35.7187 182.883 35.44C183.572 35.1613 184.364 35.022 185.259 35.022C185.904 35.022 186.505 35.0953 187.063 35.242C187.635 35.374 188.185 35.5867 188.713 35.88C188.933 35.9973 189.079 36.1513 189.153 36.342C189.241 36.5327 189.263 36.7307 189.219 36.936C189.175 37.1267 189.087 37.3027 188.955 37.464C188.823 37.6107 188.654 37.706 188.449 37.75C188.258 37.7793 188.038 37.7353 187.789 37.618C187.334 37.3833 186.894 37.2147 186.469 37.112C186.058 37.0093 185.662 36.958 185.281 36.958C184.562 36.958 184.027 37.0827 183.675 37.332C183.337 37.5813 183.169 37.9113 183.169 38.322C183.169 38.63 183.271 38.8867 183.477 39.092C183.682 39.2973 183.997 39.4367 184.423 39.51L186.623 39.928C187.576 40.104 188.295 40.4267 188.779 40.896C189.277 41.3653 189.527 41.996 189.527 42.788C189.527 43.8587 189.109 44.702 188.273 45.318C187.437 45.9193 186.322 46.22 184.929 46.22ZM197.035 46.22C195.817 46.22 194.769 45.9927 193.889 45.538C193.009 45.0833 192.327 44.438 191.843 43.602C191.373 42.766 191.139 41.776 191.139 40.632C191.139 39.5173 191.366 38.542 191.821 37.706C192.29 36.87 192.928 36.2173 193.735 35.748C194.556 35.264 195.487 35.022 196.529 35.022C197.291 35.022 197.973 35.1467 198.575 35.396C199.191 35.6453 199.711 36.0047 200.137 36.474C200.577 36.9433 200.907 37.5153 201.127 38.19C201.361 38.85 201.479 39.598 201.479 40.434C201.479 40.698 201.383 40.9033 201.193 41.05C201.017 41.182 200.76 41.248 200.423 41.248H193.361V39.664H199.543L199.191 39.994C199.191 39.3193 199.088 38.7547 198.883 38.3C198.692 37.8453 198.406 37.5007 198.025 37.266C197.658 37.0167 197.196 36.892 196.639 36.892C196.023 36.892 195.495 37.0387 195.055 37.332C194.629 37.6107 194.299 38.014 194.065 38.542C193.845 39.0553 193.735 39.6713 193.735 40.39V40.544C193.735 41.7467 194.013 42.6487 194.571 43.25C195.143 43.8367 195.979 44.13 197.079 44.13C197.46 44.13 197.885 44.086 198.355 43.998C198.839 43.8953 199.293 43.7267 199.719 43.492C200.027 43.316 200.298 43.2427 200.533 43.272C200.767 43.2867 200.951 43.3673 201.083 43.514C201.229 43.6607 201.317 43.844 201.347 44.064C201.376 44.2693 201.332 44.482 201.215 44.702C201.112 44.922 200.929 45.1127 200.665 45.274C200.151 45.5967 199.557 45.8387 198.883 46C198.223 46.1467 197.607 46.22 197.035 46.22ZM205.021 46.176C204.581 46.176 204.243 46.0587 204.009 45.824C203.774 45.5747 203.657 45.2227 203.657 44.768V36.452C203.657 35.9973 203.774 35.6527 204.009 35.418C204.243 35.1833 204.573 35.066 204.999 35.066C205.424 35.066 205.754 35.1833 205.989 35.418C206.223 35.6527 206.341 35.9973 206.341 36.452V37.948L206.099 37.398C206.421 36.6207 206.92 36.034 207.595 35.638C208.284 35.2273 209.061 35.022 209.927 35.022C210.792 35.022 211.503 35.1833 212.061 35.506C212.618 35.8287 213.036 36.32 213.315 36.98C213.593 37.6253 213.733 38.4467 213.733 39.444V44.768C213.733 45.2227 213.615 45.5747 213.381 45.824C213.146 46.0587 212.809 46.176 212.369 46.176C211.929 46.176 211.584 46.0587 211.335 45.824C211.1 45.5747 210.983 45.2227 210.983 44.768V39.576C210.983 38.74 210.821 38.1313 210.499 37.75C210.191 37.3687 209.707 37.178 209.047 37.178C208.24 37.178 207.595 37.4347 207.111 37.948C206.641 38.4467 206.407 39.114 206.407 39.95V44.768C206.407 45.7067 205.945 46.176 205.021 46.176ZM220.662 46.22C219.723 46.22 218.894 45.9927 218.176 45.538C217.472 45.0833 216.922 44.438 216.526 43.602C216.13 42.7513 215.932 41.754 215.932 40.61C215.932 39.4513 216.13 38.4613 216.526 37.64C216.922 36.804 217.472 36.1587 218.176 35.704C218.894 35.2493 219.723 35.022 220.662 35.022C221.556 35.022 222.334 35.242 222.994 35.682C223.668 36.122 224.123 36.7013 224.358 37.42H224.116V31.7C224.116 31.2453 224.233 30.9007 224.468 30.666C224.702 30.4313 225.04 30.314 225.48 30.314C225.92 30.314 226.257 30.4313 226.492 30.666C226.741 30.9007 226.866 31.2453 226.866 31.7V44.768C226.866 45.2227 226.748 45.5747 226.514 45.824C226.279 46.0587 225.942 46.176 225.502 46.176C225.062 46.176 224.724 46.0587 224.49 45.824C224.255 45.5747 224.138 45.2227 224.138 44.768V43.052L224.38 43.712C224.16 44.4747 223.712 45.0833 223.038 45.538C222.363 45.9927 221.571 46.22 220.662 46.22ZM221.432 44.13C221.974 44.13 222.451 43.998 222.862 43.734C223.272 43.47 223.588 43.0813 223.808 42.568C224.042 42.04 224.16 41.3873 224.16 40.61C224.16 39.4367 223.91 38.564 223.412 37.992C222.913 37.4053 222.253 37.112 221.432 37.112C220.889 37.112 220.412 37.244 220.002 37.508C219.591 37.7573 219.268 38.146 219.034 38.674C218.814 39.1873 218.704 39.8327 218.704 40.61C218.704 41.7687 218.953 42.6487 219.452 43.25C219.95 43.8367 220.61 44.13 221.432 44.13ZM235.019 46.22C233.802 46.22 232.753 45.9927 231.873 45.538C230.993 45.0833 230.311 44.438 229.827 43.602C229.358 42.766 229.123 41.776 229.123 40.632C229.123 39.5173 229.35 38.542 229.805 37.706C230.274 36.87 230.912 36.2173 231.719 35.748C232.54 35.264 233.472 35.022 234.513 35.022C235.276 35.022 235.958 35.1467 236.559 35.396C237.175 35.6453 237.696 36.0047 238.121 36.474C238.561 36.9433 238.891 37.5153 239.111 38.19C239.346 38.85 239.463 39.598 239.463 40.434C239.463 40.698 239.368 40.9033 239.177 41.05C239.001 41.182 238.744 41.248 238.407 41.248H231.345V39.664H237.527L237.175 39.994C237.175 39.3193 237.072 38.7547 236.867 38.3C236.676 37.8453 236.39 37.5007 236.009 37.266C235.642 37.0167 235.18 36.892 234.623 36.892C234.007 36.892 233.479 37.0387 233.039 37.332C232.614 37.6107 232.284 38.014 232.049 38.542C231.829 39.0553 231.719 39.6713 231.719 40.39V40.544C231.719 41.7467 231.998 42.6487 232.555 43.25C233.127 43.8367 233.963 44.13 235.063 44.13C235.444 44.13 235.87 44.086 236.339 43.998C236.823 43.8953 237.278 43.7267 237.703 43.492C238.011 43.316 238.282 43.2427 238.517 43.272C238.752 43.2867 238.935 43.3673 239.067 43.514C239.214 43.6607 239.302 43.844 239.331 44.064C239.36 44.2693 239.316 44.482 239.199 44.702C239.096 44.922 238.913 45.1127 238.649 45.274C238.136 45.5967 237.542 45.8387 236.867 46C236.207 46.1467 235.591 46.22 235.019 46.22ZM246.526 46.22C245.573 46.22 244.773 46.0587 244.128 45.736C243.497 45.4133 243.028 44.944 242.72 44.328C242.412 43.6973 242.258 42.92 242.258 41.996V37.31H241.114C240.762 37.31 240.491 37.222 240.3 37.046C240.109 36.8553 240.014 36.5987 240.014 36.276C240.014 35.9387 240.109 35.682 240.3 35.506C240.491 35.33 240.762 35.242 241.114 35.242H242.258V33.24C242.258 32.7853 242.375 32.4407 242.61 32.206C242.859 31.9713 243.204 31.854 243.644 31.854C244.084 31.854 244.421 31.9713 244.656 32.206C244.891 32.4407 245.008 32.7853 245.008 33.24V35.242H247.34C247.692 35.242 247.963 35.33 248.154 35.506C248.345 35.682 248.44 35.9387 248.44 36.276C248.44 36.5987 248.345 36.8553 248.154 37.046C247.963 37.222 247.692 37.31 247.34 37.31H245.008V41.842C245.008 42.546 245.162 43.074 245.47 43.426C245.778 43.778 246.277 43.954 246.966 43.954C247.215 43.954 247.435 43.932 247.626 43.888C247.817 43.844 247.985 43.8147 248.132 43.8C248.308 43.7853 248.455 43.844 248.572 43.976C248.689 44.0933 248.748 44.3427 248.748 44.724C248.748 45.0173 248.697 45.2813 248.594 45.516C248.506 45.736 248.337 45.89 248.088 45.978C247.897 46.0367 247.648 46.088 247.34 46.132C247.032 46.1907 246.761 46.22 246.526 46.22Z" fill="white"/>
</g>
<defs>
<filter id="filter0_d_609_17303" x="0" y="0" width="289" height="90" filterUnits="userSpaceOnUse" color-interpolation-filters="sRGB">
<feFlood flood-opacity="0" result="BackgroundImageFix"/>
<feColorMatrix in="SourceAlpha" type="matrix" values="0 0 0 0 0 0 0 0 0 0 0 0 0 0 0 0 0 0 127 0" result="hardAlpha"/>
<feOffset dy="6"/>
<feGaussianBlur stdDeviation="5"/>
<feComposite in2="hardAlpha" operator="out"/>
<feColorMatrix type="matrix" values="0 0 0 0 0 0 0 0 0 0 0 0 0 0 0 0 0 0 0.2 0"/>
<feBlend mode="normal" in2="BackgroundImageFix" result="effect1_dropShadow_609_17303"/>
<feBlend mode="normal" in="SourceGraphic" in2="effect1_dropShadow_609_17303" result="shape"/>
</filter>
</defs>
</svg>
