<svg width="306" height="70" viewBox="0 0 306 70" fill="none" xmlns="http://www.w3.org/2000/svg">
<g clip-path="url(#clip0_5538_16710)">
<path d="M64.8307 0H32.6845C29.7768 0 27.4614 2.31538 27.4614 5.16923V31.7692H64.7768C67.6307 31.7692 69.946 29.4538 69.946 26.6V5.16923C69.9999 2.31538 67.6845 0 64.8307 0Z" fill="#92C83E"/>
<path d="M38.823 18.4153C40.2207 18.4153 41.3538 17.2822 41.3538 15.8845C41.3538 14.4868 40.2207 13.3538 38.823 13.3538C37.4253 13.3538 36.2922 14.4868 36.2922 15.8845C36.2922 17.2822 37.4253 18.4153 38.823 18.4153Z" fill="white"/>
<path d="M48.7307 18.4153C50.1284 18.4153 51.2615 17.2822 51.2615 15.8845C51.2615 14.4868 50.1284 13.3538 48.7307 13.3538C47.333 13.3538 46.2 14.4868 46.2 15.8845C46.2 17.2822 47.333 18.4153 48.7307 18.4153Z" fill="white"/>
<path d="M58.6384 18.4153C60.0361 18.4153 61.1692 17.2822 61.1692 15.8845C61.1692 14.4868 60.0361 13.3538 58.6384 13.3538C57.2407 13.3538 56.1077 14.4868 56.1077 15.8845C56.1077 17.2822 57.2407 18.4153 58.6384 18.4153Z" fill="white"/>
<path d="M5.33085 37.9076C2.47701 37.9076 0.161621 40.223 0.161621 43.0768V64.7768C0.161621 67.6307 2.47701 69.9461 5.33085 69.9461H37.477C40.3308 69.9461 42.6462 67.6307 42.6462 64.7768V37.8538H5.33085V37.9076Z" fill="#FBB03B"/>
<path d="M11.4692 56.4846C12.8669 56.4846 14 55.3516 14 53.9539C14 52.5562 12.8669 51.4231 11.4692 51.4231C10.0715 51.4231 8.93848 52.5562 8.93848 53.9539C8.93848 55.3516 10.0715 56.4846 11.4692 56.4846Z" fill="white"/>
<path d="M21.377 56.4846C22.7747 56.4846 23.9077 55.3516 23.9077 53.9539C23.9077 52.5562 22.7747 51.4231 21.377 51.4231C19.9793 51.4231 18.8462 52.5562 18.8462 53.9539C18.8462 55.3516 19.9793 56.4846 21.377 56.4846Z" fill="white"/>
<path d="M31.2847 56.4846C32.6824 56.4846 33.8154 55.3516 33.8154 53.9539C33.8154 52.5562 32.6824 51.4231 31.2847 51.4231C29.887 51.4231 28.7539 52.5562 28.7539 53.9539C28.7539 55.3516 29.887 56.4846 31.2847 56.4846Z" fill="white"/>
<path d="M21.3769 21.1077V31.8231H10.7154C4.7923 31.8231 0 27.0308 0 21.1077C0 15.1846 4.7923 10.3923 10.7154 10.3923C16.6385 10.3923 21.3769 15.2385 21.3769 21.1077Z" fill="#ED1E79"/>
<path d="M48.623 48.6231V37.9077H59.3384C65.2615 37.9077 70.0538 42.7 70.0538 48.6231C70.0538 54.5462 65.2615 59.3385 59.3384 59.3385C53.4154 59.3385 48.623 54.4923 48.623 48.6231Z" fill="#3FA9F5"/>
</g>
<g clip-path="url(#clip1_5538_16710)">
<path d="M107.695 23.2673H101.259C100.531 23.2673 99.9681 23.461 99.5809 23.8482C99.1936 24.2354 99 24.7979 99 25.5263V44.4091C99 45.1375 99.1936 45.6999 99.5809 46.0872C99.9681 46.4744 100.531 46.668 101.259 46.668H107.695C109.668 46.668 111.41 46.4099 112.922 45.8843C114.434 45.368 115.725 44.6027 116.776 43.6069C117.828 42.6112 118.62 41.3849 119.164 39.9373C119.708 38.4898 119.976 36.8209 119.976 34.94C119.976 31.1782 118.906 28.2923 116.776 26.2731C114.637 24.2723 111.613 23.2673 107.695 23.2673ZM115.034 38.5543C114.702 39.587 114.195 40.4352 113.522 41.1083C112.849 41.7814 112.01 42.2885 110.995 42.6388C109.99 42.98 108.801 43.1552 107.427 43.1552H103.241V26.7802H107.427C110.129 26.7802 112.148 27.4533 113.503 28.8086C114.849 30.1548 115.532 32.2016 115.532 34.9492C115.532 36.323 115.366 37.5217 115.034 38.5543Z" fill="black"/>
<path d="M134.203 24.7887C133.917 24.1433 133.566 23.6915 133.161 23.4149C132.755 23.1383 132.294 23 131.787 23C131.28 23 130.782 23.1383 130.376 23.4149C129.971 23.6915 129.62 24.1525 129.334 24.7887L120.575 44.2063C120.354 44.7134 120.28 45.1744 120.345 45.5801C120.409 45.9858 120.603 46.3177 120.926 46.5574C121.248 46.7972 121.672 46.9262 122.207 46.9262C122.779 46.9262 123.221 46.7787 123.535 46.4929C123.848 46.2071 124.143 45.7368 124.429 45.1007L126.061 41.2466H137.476L139.135 45.1007C139.403 45.7184 139.707 46.1794 140.048 46.4745C140.389 46.7695 140.869 46.9262 141.496 46.9262C142.003 46.9262 142.418 46.8064 142.722 46.5759C143.035 46.3454 143.22 46.0134 143.284 45.5985C143.349 45.1744 143.266 44.7134 143.017 44.2063L134.203 24.7887ZM131.713 27.8774H131.778L136.01 37.8721H127.509L131.713 27.8774Z" fill="black"/>
<path d="M160.046 34.5896C161.024 34.2208 161.826 33.6676 162.453 32.9208C163.273 31.9434 163.679 30.754 163.679 29.3341C163.679 28.071 163.375 26.9922 162.766 26.0794C162.158 25.1758 161.282 24.4751 160.129 23.9864C158.977 23.4978 157.585 23.2581 155.943 23.2581H147.977C147.249 23.2581 146.686 23.4517 146.299 23.8389C145.912 24.2262 145.718 24.7886 145.718 25.517V44.3998C145.718 45.1282 145.912 45.6906 146.299 46.0779C146.686 46.4651 147.249 46.6587 147.977 46.6587H156.312C158.811 46.6587 160.766 46.0871 162.167 44.953C163.568 43.8097 164.278 42.2054 164.278 40.1217C164.278 38.5266 163.827 37.2358 162.914 36.24C162.195 35.4471 161.227 34.9031 160.046 34.5896ZM149.803 26.4851H155.215C156.672 26.4851 157.769 26.7709 158.488 27.3334C159.207 27.8958 159.567 28.7348 159.567 29.8412C159.567 30.9476 159.207 31.7867 158.488 32.3491C157.769 32.9115 156.681 33.1974 155.215 33.1974H149.803V26.4851ZM159.097 42.565C158.387 43.1551 157.28 43.4409 155.777 43.4409H149.803V36.406H155.777C157.28 36.406 158.387 36.6918 159.097 37.2727C159.807 37.8443 160.157 38.7294 160.157 39.9281C160.157 41.1267 159.807 41.9841 159.097 42.565Z" fill="black"/>
<path d="M180.976 30.1731C180.312 30.1731 179.805 30.3483 179.445 30.6894C179.095 31.0306 178.911 31.5561 178.911 32.2661V39.5684C178.911 40.8316 178.56 41.8458 177.85 42.6018C177.14 43.3671 176.237 43.7451 175.13 43.7451C174.116 43.7451 173.369 43.4685 172.908 42.9153C172.447 42.3621 172.208 41.5139 172.208 40.3613V32.2661C172.208 31.5561 172.023 31.0306 171.664 30.6894C171.295 30.3483 170.788 30.1731 170.124 30.1731C169.46 30.1731 168.953 30.3483 168.593 30.6894C168.243 31.0306 168.059 31.5561 168.059 32.2661V40.2968C168.059 41.7812 168.271 43.0167 168.704 44.0125C169.137 45.0083 169.792 45.7551 170.677 46.253C171.562 46.7509 172.678 46.9998 174.033 46.9998C175.389 46.9998 176.43 46.6771 177.371 46.0409C178.044 45.5799 178.588 44.9806 179.012 44.243V44.8147C179.012 45.497 179.187 46.0225 179.547 46.3913C179.897 46.7601 180.395 46.9353 181.041 46.9353C182.387 46.9353 183.069 46.2253 183.069 44.8147V32.2661C183.069 31.5561 182.885 31.0306 182.525 30.6894C182.156 30.3483 181.649 30.1731 180.985 30.1731H180.976Z" fill="black"/>
<path d="M200.486 31.1322C199.426 30.4499 198.172 30.0995 196.733 30.0995C195.387 30.0995 194.198 30.4314 193.184 31.0953C192.455 31.5655 191.911 32.1464 191.524 32.8379V25.093C191.524 24.4107 191.34 23.8851 190.98 23.5348C190.62 23.1844 190.104 23 189.44 23C188.776 23 188.269 23.1752 187.91 23.5348C187.559 23.8851 187.375 24.4107 187.375 25.093V44.8056C187.375 45.4879 187.55 46.0134 187.91 46.3823C188.26 46.7511 188.776 46.9262 189.44 46.9262C190.104 46.9262 190.584 46.7418 190.934 46.3823C191.284 46.0134 191.469 45.4879 191.469 44.8056V44.1141C191.847 44.8517 192.4 45.4695 193.147 45.9673C194.179 46.6496 195.378 47 196.752 47C198.126 47 199.416 46.6589 200.486 45.9673C201.556 45.2851 202.395 44.2985 202.994 43.0261C203.593 41.7537 203.888 40.2509 203.888 38.5267C203.888 36.8025 203.593 35.2812 202.994 34.0273C202.395 32.7733 201.565 31.8052 200.504 31.1229L200.486 31.1322ZM199.177 41.4679C198.836 42.2516 198.356 42.8417 197.729 43.2474C197.102 43.6531 196.392 43.8467 195.572 43.8467C194.336 43.8467 193.34 43.3949 192.584 42.5006C191.828 41.6062 191.46 40.2785 191.46 38.5359C191.46 37.365 191.635 36.3876 191.976 35.5947C192.317 34.811 192.796 34.2209 193.423 33.8337C194.041 33.4464 194.76 33.2528 195.581 33.2528C196.816 33.2528 197.812 33.6861 198.568 34.562C199.324 35.438 199.693 36.7564 199.693 38.5267C199.693 39.6977 199.518 40.675 199.177 41.4679Z" fill="black"/>
<path d="M220.401 31.1322C219.341 30.4499 218.087 30.0995 216.649 30.0995C215.303 30.0995 214.113 30.4314 213.099 31.0953C212.371 31.5655 211.827 32.1464 211.439 32.8379V25.093C211.439 24.4107 211.255 23.8851 210.895 23.5348C210.536 23.1844 210.019 23 209.356 23C208.692 23 208.185 23.1752 207.825 23.5348C207.475 23.8851 207.29 24.4107 207.29 25.093V44.8056C207.29 45.4879 207.465 46.0134 207.825 46.3823C208.175 46.7511 208.692 46.9262 209.356 46.9262C210.019 46.9262 210.499 46.7418 210.849 46.3823C211.2 46.0134 211.384 45.4879 211.384 44.8056V44.1141C211.762 44.8517 212.315 45.4695 213.062 45.9673C214.095 46.6496 215.293 47 216.667 47C218.041 47 219.332 46.6589 220.401 45.9673C221.471 45.2851 222.31 44.2985 222.909 43.0261C223.508 41.7537 223.804 40.2509 223.804 38.5267C223.804 36.8025 223.508 35.2812 222.909 34.0273C222.31 32.7733 221.48 31.8052 220.42 31.1229L220.401 31.1322ZM219.092 41.4679C218.751 42.2516 218.271 42.8417 217.644 43.2474C217.018 43.6531 216.308 43.8467 215.487 43.8467C214.251 43.8467 213.256 43.3949 212.5 42.5006C211.744 41.6062 211.375 40.2785 211.375 38.5359C211.375 37.365 211.55 36.3876 211.891 35.5947C212.232 34.811 212.712 34.2209 213.339 33.8337C213.956 33.4464 214.676 33.2528 215.496 33.2528C216.732 33.2528 217.727 33.6861 218.484 34.562C219.24 35.438 219.608 36.7564 219.608 38.5267C219.608 39.6977 219.433 40.675 219.092 41.4679Z" fill="black"/>
<path d="M234.812 43.5148C234.656 43.5332 234.499 43.5517 234.351 43.5609C234.195 43.5701 234.029 43.5793 233.854 43.5793C233.061 43.5793 232.443 43.3396 232.01 42.8509C231.576 42.3623 231.364 41.6154 231.364 40.592V25.093C231.364 24.4107 231.18 23.8851 230.82 23.5348C230.461 23.1844 229.944 23 229.28 23C228.617 23 228.109 23.1752 227.75 23.5348C227.399 23.8851 227.215 24.4107 227.215 25.093V40.7949C227.215 42.8325 227.676 44.3723 228.607 45.4234C229.539 46.4745 230.922 47 232.756 47C232.996 47 233.245 46.9908 233.485 46.9631C233.725 46.9447 233.964 46.917 234.186 46.8986C234.693 46.834 235.061 46.6404 235.283 46.3361C235.504 46.0227 235.615 45.5985 235.615 45.0453C235.615 44.3999 235.559 43.9758 235.449 43.7637C235.338 43.5517 235.126 43.4687 234.822 43.5148H234.812Z" fill="black"/>
<path d="M250.911 42.5374C250.56 42.5005 250.146 42.6204 249.685 42.8877C249.039 43.2381 248.366 43.4871 247.647 43.6346C246.928 43.7821 246.282 43.8466 245.701 43.8466C244.042 43.8466 242.788 43.3949 241.93 42.5005C241.257 41.7906 240.861 40.7856 240.723 39.4947H250.745C251.252 39.4947 251.648 39.3933 251.925 39.1813C252.202 38.9692 252.34 38.6649 252.34 38.2685C252.34 37.0053 252.165 35.8712 251.824 34.8662C251.482 33.8612 250.985 33.0038 250.33 32.2938C249.675 31.5839 248.892 31.0399 247.97 30.6711C247.048 30.293 246.015 30.1086 244.862 30.1086C243.295 30.1086 241.894 30.4682 240.667 31.1874C239.441 31.9066 238.473 32.8931 237.781 34.1563C237.081 35.4194 236.74 36.8854 236.74 38.5727C236.74 40.26 237.099 41.7906 237.818 43.0537C238.537 44.3169 239.561 45.285 240.889 45.9765C242.216 46.6588 243.802 47.0091 245.637 47.0091C246.504 47.0091 247.435 46.8893 248.44 46.6588C249.445 46.4283 250.339 46.0687 251.114 45.58C251.51 45.3403 251.796 45.0453 251.962 44.7133C252.128 44.3814 252.192 44.0587 252.146 43.736C252.1 43.4133 251.971 43.1459 251.768 42.9246C251.556 42.7033 251.28 42.5743 250.92 42.5466L250.911 42.5374ZM242.659 33.5754C243.313 33.1421 244.106 32.93 245.028 32.93C245.867 32.93 246.568 33.1144 247.14 33.474C247.702 33.8428 248.136 34.3683 248.431 35.0506C248.68 35.6223 248.818 36.3138 248.864 37.1067H240.723C240.806 36.4798 240.944 35.8989 241.165 35.401C241.506 34.6173 242.004 34.0088 242.659 33.5754Z" fill="black"/>
</g>
<defs>
<clipPath id="clip0_5538_16710">
<rect width="70" height="70" fill="white"/>
</clipPath>
<clipPath id="clip1_5538_16710">
<rect width="156.106" height="24" fill="white" transform="translate(99 23)"/>
</clipPath>
</defs>
</svg>
