<svg width="343" height="90" viewBox="0 0 343 90" fill="none" xmlns="http://www.w3.org/2000/svg">
<g filter="url(#filter0_d_609_17301)">
<path d="M10 34C10 17.4315 23.4315 4 40 4H303C319.569 4 333 17.4315 333 34V74H40C23.4315 74 10 60.5685 10 44V34Z" fill="#444DF2" shape-rendering="crispEdges"/>
<path d="M43.102 46.176C42.6473 46.176 42.2953 46.0513 42.046 45.802C41.8113 45.538 41.694 45.1787 41.694 44.724V31.744C41.694 31.2747 41.8113 30.9227 42.046 30.688C42.2953 30.4387 42.6473 30.314 43.102 30.314C43.5567 30.314 43.9013 30.4387 44.136 30.688C44.3853 30.9227 44.51 31.2747 44.51 31.744V37.354H44.554L50.868 31.018C51.1027 30.7833 51.3373 30.6073 51.572 30.49C51.8067 30.3727 52.0707 30.314 52.364 30.314C52.7893 30.314 53.09 30.424 53.266 30.644C53.4567 30.864 53.53 31.1207 53.486 31.414C53.4567 31.7073 53.3173 31.9787 53.068 32.228L46.644 38.586L46.666 37.31L53.376 44.13C53.684 44.4233 53.8453 44.7313 53.86 45.054C53.8747 45.3767 53.772 45.648 53.552 45.868C53.3467 46.0733 53.0387 46.176 52.628 46.176C52.276 46.176 51.99 46.1027 51.77 45.956C51.5647 45.8093 51.3227 45.5967 51.044 45.318L44.554 38.828H44.51V44.724C44.51 45.1787 44.3927 45.538 44.158 45.802C43.9233 46.0513 43.5713 46.176 43.102 46.176ZM60.6876 46.22C59.5729 46.22 58.6049 45.9927 57.7836 45.538C56.9622 45.0833 56.3242 44.438 55.8696 43.602C55.4149 42.7513 55.1876 41.754 55.1876 40.61C55.1876 39.7447 55.3122 38.9747 55.5616 38.3C55.8256 37.6107 56.1996 37.024 56.6836 36.54C57.1676 36.0413 57.7469 35.6673 58.4216 35.418C59.0962 35.154 59.8516 35.022 60.6876 35.022C61.8022 35.022 62.7702 35.2493 63.5916 35.704C64.4129 36.1587 65.0509 36.804 65.5056 37.64C65.9602 38.476 66.1876 39.466 66.1876 40.61C66.1876 41.4753 66.0556 42.2527 65.7916 42.942C65.5422 43.6313 65.1756 44.2253 64.6916 44.724C64.2076 45.208 63.6282 45.582 62.9536 45.846C62.2789 46.0953 61.5236 46.22 60.6876 46.22ZM60.6876 44.13C61.2302 44.13 61.7069 43.998 62.1176 43.734C62.5282 43.47 62.8436 43.0813 63.0636 42.568C63.2982 42.04 63.4156 41.3873 63.4156 40.61C63.4156 39.4367 63.1662 38.564 62.6676 37.992C62.1689 37.4053 61.5089 37.112 60.6876 37.112C60.1449 37.112 59.6682 37.244 59.2576 37.508C58.8469 37.7573 58.5242 38.146 58.2896 38.674C58.0696 39.1873 57.9596 39.8327 57.9596 40.61C57.9596 41.7687 58.2089 42.6487 58.7076 43.25C59.2062 43.8367 59.8662 44.13 60.6876 44.13ZM69.8213 46.176C69.3813 46.176 69.044 46.0587 68.8093 45.824C68.5747 45.5747 68.4573 45.2227 68.4573 44.768V36.452C68.4573 35.9973 68.5747 35.6527 68.8093 35.418C69.044 35.1833 69.374 35.066 69.7993 35.066C70.2247 35.066 70.5547 35.1833 70.7893 35.418C71.024 35.6527 71.1413 35.9973 71.1413 36.452V37.948L70.8993 37.398C71.222 36.6207 71.7207 36.034 72.3953 35.638C73.0847 35.2273 73.862 35.022 74.7273 35.022C75.5927 35.022 76.304 35.1833 76.8613 35.506C77.4187 35.8287 77.8367 36.32 78.1153 36.98C78.394 37.6253 78.5333 38.4467 78.5333 39.444V44.768C78.5333 45.2227 78.416 45.5747 78.1813 45.824C77.9467 46.0587 77.6093 46.176 77.1693 46.176C76.7293 46.176 76.3847 46.0587 76.1353 45.824C75.9007 45.5747 75.7833 45.2227 75.7833 44.768V39.576C75.7833 38.74 75.622 38.1313 75.2993 37.75C74.9913 37.3687 74.5073 37.178 73.8473 37.178C73.0407 37.178 72.3953 37.4347 71.9113 37.948C71.442 38.4467 71.2073 39.114 71.2073 39.95V44.768C71.2073 45.7067 70.7453 46.176 69.8213 46.176ZM86.2545 46.22C85.3012 46.22 84.5018 46.0587 83.8565 45.736C83.2258 45.4133 82.7565 44.944 82.4485 44.328C82.1405 43.6973 81.9865 42.92 81.9865 41.996V37.31H80.8425C80.4905 37.31 80.2192 37.222 80.0285 37.046C79.8378 36.8553 79.7425 36.5987 79.7425 36.276C79.7425 35.9387 79.8378 35.682 80.0285 35.506C80.2192 35.33 80.4905 35.242 80.8425 35.242H81.9865V33.24C81.9865 32.7853 82.1038 32.4407 82.3385 32.206C82.5878 31.9713 82.9325 31.854 83.3725 31.854C83.8125 31.854 84.1498 31.9713 84.3845 32.206C84.6192 32.4407 84.7365 32.7853 84.7365 33.24V35.242H87.0685C87.4205 35.242 87.6918 35.33 87.8825 35.506C88.0732 35.682 88.1685 35.9387 88.1685 36.276C88.1685 36.5987 88.0732 36.8553 87.8825 37.046C87.6918 37.222 87.4205 37.31 87.0685 37.31H84.7365V41.842C84.7365 42.546 84.8905 43.074 85.1985 43.426C85.5065 43.778 86.0052 43.954 86.6945 43.954C86.9438 43.954 87.1638 43.932 87.3545 43.888C87.5452 43.844 87.7138 43.8147 87.8605 43.8C88.0365 43.7853 88.1832 43.844 88.3005 43.976C88.4178 44.0933 88.4765 44.3427 88.4765 44.724C88.4765 45.0173 88.4252 45.2813 88.3225 45.516C88.2345 45.736 88.0658 45.89 87.8165 45.978C87.6258 46.0367 87.3765 46.088 87.0685 46.132C86.7605 46.1907 86.4892 46.22 86.2545 46.22ZM94.5684 46.22C93.4538 46.22 92.4858 45.9927 91.6644 45.538C90.8431 45.0833 90.2051 44.438 89.7504 43.602C89.2958 42.7513 89.0684 41.754 89.0684 40.61C89.0684 39.7447 89.1931 38.9747 89.4424 38.3C89.7064 37.6107 90.0804 37.024 90.5644 36.54C91.0484 36.0413 91.6278 35.6673 92.3024 35.418C92.9771 35.154 93.7324 35.022 94.5684 35.022C95.6831 35.022 96.6511 35.2493 97.4724 35.704C98.2938 36.1587 98.9318 36.804 99.3864 37.64C99.8411 38.476 100.068 39.466 100.068 40.61C100.068 41.4753 99.9364 42.2527 99.6724 42.942C99.4231 43.6313 99.0564 44.2253 98.5724 44.724C98.0884 45.208 97.5091 45.582 96.8344 45.846C96.1598 46.0953 95.4044 46.22 94.5684 46.22ZM94.5684 44.13C95.1111 44.13 95.5878 43.998 95.9984 43.734C96.4091 43.47 96.7244 43.0813 96.9444 42.568C97.1791 42.04 97.2964 41.3873 97.2964 40.61C97.2964 39.4367 97.0471 38.564 96.5484 37.992C96.0498 37.4053 95.3898 37.112 94.5684 37.112C94.0258 37.112 93.5491 37.244 93.1384 37.508C92.7278 37.7573 92.4051 38.146 92.1704 38.674C91.9504 39.1873 91.8404 39.8327 91.8404 40.61C91.8404 41.7687 92.0898 42.6487 92.5884 43.25C93.0871 43.8367 93.7471 44.13 94.5684 44.13ZM113.613 46.22C112.396 46.22 111.347 45.9927 110.467 45.538C109.587 45.0833 108.905 44.438 108.421 43.602C107.952 42.766 107.717 41.776 107.717 40.632C107.717 39.5173 107.944 38.542 108.399 37.706C108.868 36.87 109.506 36.2173 110.313 35.748C111.134 35.264 112.066 35.022 113.107 35.022C113.87 35.022 114.552 35.1467 115.153 35.396C115.769 35.6453 116.29 36.0047 116.715 36.474C117.155 36.9433 117.485 37.5153 117.705 38.19C117.94 38.85 118.057 39.598 118.057 40.434C118.057 40.698 117.962 40.9033 117.771 41.05C117.595 41.182 117.338 41.248 117.001 41.248H109.939V39.664H116.121L115.769 39.994C115.769 39.3193 115.666 38.7547 115.461 38.3C115.27 37.8453 114.984 37.5007 114.603 37.266C114.236 37.0167 113.774 36.892 113.217 36.892C112.601 36.892 112.073 37.0387 111.633 37.332C111.208 37.6107 110.878 38.014 110.643 38.542C110.423 39.0553 110.313 39.6713 110.313 40.39V40.544C110.313 41.7467 110.592 42.6487 111.149 43.25C111.721 43.8367 112.557 44.13 113.657 44.13C114.038 44.13 114.464 44.086 114.933 43.998C115.417 43.8953 115.872 43.7267 116.297 43.492C116.605 43.316 116.876 43.2427 117.111 43.272C117.346 43.2867 117.529 43.3673 117.661 43.514C117.808 43.6607 117.896 43.844 117.925 44.064C117.954 44.2693 117.91 44.482 117.793 44.702C117.69 44.922 117.507 45.1127 117.243 45.274C116.73 45.5967 116.136 45.8387 115.461 46C114.801 46.1467 114.185 46.22 113.613 46.22ZM121.643 46.176C121.188 46.176 120.836 46.0587 120.587 45.824C120.352 45.5747 120.235 45.2227 120.235 44.768V36.452C120.235 35.9973 120.352 35.6527 120.587 35.418C120.821 35.1833 121.151 35.066 121.577 35.066C122.002 35.066 122.332 35.1833 122.567 35.418C122.801 35.6527 122.919 35.9973 122.919 36.452V37.838H122.699C122.904 36.958 123.307 36.2907 123.909 35.836C124.51 35.3813 125.309 35.11 126.307 35.022C126.615 34.9927 126.857 35.0733 127.033 35.264C127.223 35.44 127.333 35.7187 127.363 36.1C127.392 36.4667 127.304 36.7673 127.099 37.002C126.908 37.222 126.615 37.354 126.219 37.398L125.735 37.442C124.84 37.53 124.165 37.8087 123.711 38.278C123.256 38.7327 123.029 39.378 123.029 40.214V44.768C123.029 45.2227 122.911 45.5747 122.677 45.824C122.442 46.0587 122.097 46.176 121.643 46.176ZM131.585 46.176C131.145 46.176 130.8 46.0587 130.551 45.824C130.316 45.5747 130.199 45.2227 130.199 44.768V37.31H129.187C128.835 37.31 128.564 37.222 128.373 37.046C128.182 36.8553 128.087 36.5987 128.087 36.276C128.087 35.9387 128.182 35.682 128.373 35.506C128.564 35.33 128.835 35.242 129.187 35.242H130.991L130.199 35.968V35.22C130.199 33.7093 130.58 32.58 131.343 31.832C132.106 31.0693 133.206 30.622 134.643 30.49L135.391 30.424C135.684 30.3947 135.919 30.446 136.095 30.578C136.271 30.6953 136.388 30.8567 136.447 31.062C136.506 31.2527 136.513 31.4507 136.469 31.656C136.425 31.8613 136.33 32.0447 136.183 32.206C136.051 32.3527 135.875 32.4333 135.655 32.448L135.347 32.47C134.511 32.5287 133.902 32.7413 133.521 33.108C133.14 33.4747 132.949 34.032 132.949 34.78V35.594L132.597 35.242H134.819C135.171 35.242 135.442 35.33 135.633 35.506C135.824 35.682 135.919 35.9387 135.919 36.276C135.919 36.5987 135.824 36.8553 135.633 37.046C135.442 37.222 135.171 37.31 134.819 37.31H132.949V44.768C132.949 45.7067 132.494 46.176 131.585 46.176ZM142.113 46.22C140.999 46.22 140.031 45.9927 139.209 45.538C138.388 45.0833 137.75 44.438 137.295 43.602C136.841 42.7513 136.613 41.754 136.613 40.61C136.613 39.7447 136.738 38.9747 136.987 38.3C137.251 37.6107 137.625 37.024 138.109 36.54C138.593 36.0413 139.173 35.6673 139.847 35.418C140.522 35.154 141.277 35.022 142.113 35.022C143.228 35.022 144.196 35.2493 145.017 35.704C145.839 36.1587 146.477 36.804 146.931 37.64C147.386 38.476 147.613 39.466 147.613 40.61C147.613 41.4753 147.481 42.2527 147.217 42.942C146.968 43.6313 146.601 44.2253 146.117 44.724C145.633 45.208 145.054 45.582 144.379 45.846C143.705 46.0953 142.949 46.22 142.113 46.22ZM142.113 44.13C142.656 44.13 143.133 43.998 143.543 43.734C143.954 43.47 144.269 43.0813 144.489 42.568C144.724 42.04 144.841 41.3873 144.841 40.61C144.841 39.4367 144.592 38.564 144.093 37.992C143.595 37.4053 142.935 37.112 142.113 37.112C141.571 37.112 141.094 37.244 140.683 37.508C140.273 37.7573 139.95 38.146 139.715 38.674C139.495 39.1873 139.385 39.8327 139.385 40.61C139.385 41.7687 139.635 42.6487 140.133 43.25C140.632 43.8367 141.292 44.13 142.113 44.13ZM153.557 46.22C152.34 46.22 151.423 45.8753 150.807 45.186C150.191 44.482 149.883 43.4553 149.883 42.106V31.7C149.883 31.2453 150 30.9007 150.235 30.666C150.47 30.4313 150.807 30.314 151.247 30.314C151.687 30.314 152.024 30.4313 152.259 30.666C152.508 30.9007 152.633 31.2453 152.633 31.7V41.974C152.633 42.6487 152.772 43.1473 153.051 43.47C153.344 43.7927 153.755 43.954 154.283 43.954C154.4 43.954 154.51 43.954 154.613 43.954C154.716 43.9393 154.818 43.9247 154.921 43.91C155.126 43.8807 155.266 43.9393 155.339 44.086C155.412 44.218 155.449 44.4967 155.449 44.922C155.449 45.2887 155.376 45.5747 155.229 45.78C155.082 45.9853 154.84 46.11 154.503 46.154C154.356 46.1687 154.202 46.1833 154.041 46.198C153.88 46.2127 153.718 46.22 153.557 46.22ZM161.817 50.18C161.025 50.18 160.255 50.1067 159.507 49.96C158.774 49.8133 158.106 49.586 157.505 49.278C157.226 49.1313 157.036 48.9553 156.933 48.75C156.845 48.5447 156.816 48.332 156.845 48.112C156.889 47.9067 156.977 47.7233 157.109 47.562C157.256 47.4007 157.432 47.2907 157.637 47.232C157.842 47.1733 158.055 47.2027 158.275 47.32C158.92 47.6427 159.529 47.848 160.101 47.936C160.688 48.0387 161.186 48.09 161.597 48.09C162.58 48.09 163.313 47.848 163.797 47.364C164.296 46.8947 164.545 46.1907 164.545 45.252V43.272H164.743C164.523 44.02 164.061 44.6213 163.357 45.076C162.668 45.516 161.883 45.736 161.003 45.736C160.035 45.736 159.192 45.516 158.473 45.076C157.754 44.6213 157.197 43.9907 156.801 43.184C156.405 42.3773 156.207 41.4387 156.207 40.368C156.207 39.5613 156.317 38.8353 156.537 38.19C156.772 37.53 157.094 36.9653 157.505 36.496C157.93 36.0267 158.436 35.6673 159.023 35.418C159.624 35.154 160.284 35.022 161.003 35.022C161.912 35.022 162.704 35.2493 163.379 35.704C164.068 36.144 164.516 36.7307 164.721 37.464L164.501 38.014V36.452C164.501 35.9973 164.618 35.6527 164.853 35.418C165.102 35.1833 165.44 35.066 165.865 35.066C166.305 35.066 166.642 35.1833 166.877 35.418C167.112 35.6527 167.229 35.9973 167.229 36.452V44.922C167.229 46.6673 166.767 47.98 165.843 48.86C164.919 49.74 163.577 50.18 161.817 50.18ZM161.751 43.646C162.323 43.646 162.814 43.514 163.225 43.25C163.636 42.986 163.951 42.612 164.171 42.128C164.406 41.6293 164.523 41.0427 164.523 40.368C164.523 39.356 164.274 38.564 163.775 37.992C163.276 37.4053 162.602 37.112 161.751 37.112C161.179 37.112 160.688 37.244 160.277 37.508C159.866 37.772 159.544 38.146 159.309 38.63C159.089 39.114 158.979 39.6933 158.979 40.368C158.979 41.38 159.228 42.1793 159.727 42.766C160.226 43.3527 160.9 43.646 161.751 43.646ZM171.486 46.176C171.032 46.176 170.68 46.0587 170.43 45.824C170.196 45.5747 170.078 45.2227 170.078 44.768V36.452C170.078 35.9973 170.196 35.6527 170.43 35.418C170.665 35.1833 170.995 35.066 171.42 35.066C171.846 35.066 172.176 35.1833 172.41 35.418C172.645 35.6527 172.762 35.9973 172.762 36.452V37.838H172.542C172.748 36.958 173.151 36.2907 173.752 35.836C174.354 35.3813 175.153 35.11 176.15 35.022C176.458 34.9927 176.7 35.0733 176.876 35.264C177.067 35.44 177.177 35.7187 177.206 36.1C177.236 36.4667 177.148 36.7673 176.942 37.002C176.752 37.222 176.458 37.354 176.062 37.398L175.578 37.442C174.684 37.53 174.009 37.8087 173.554 38.278C173.1 38.7327 172.872 39.378 172.872 40.214V44.768C172.872 45.2227 172.755 45.5747 172.52 45.824C172.286 46.0587 171.941 46.176 171.486 46.176ZM183.824 46.22C182.606 46.22 181.558 45.9927 180.678 45.538C179.798 45.0833 179.116 44.438 178.632 43.602C178.162 42.766 177.928 41.776 177.928 40.632C177.928 39.5173 178.155 38.542 178.61 37.706C179.079 36.87 179.717 36.2173 180.524 35.748C181.345 35.264 182.276 35.022 183.318 35.022C184.08 35.022 184.762 35.1467 185.364 35.396C185.98 35.6453 186.5 36.0047 186.926 36.474C187.366 36.9433 187.696 37.5153 187.916 38.19C188.15 38.85 188.268 39.598 188.268 40.434C188.268 40.698 188.172 40.9033 187.982 41.05C187.806 41.182 187.549 41.248 187.212 41.248H180.15V39.664H186.332L185.98 39.994C185.98 39.3193 185.877 38.7547 185.672 38.3C185.481 37.8453 185.195 37.5007 184.814 37.266C184.447 37.0167 183.985 36.892 183.428 36.892C182.812 36.892 182.284 37.0387 181.844 37.332C181.418 37.6107 181.088 38.014 180.854 38.542C180.634 39.0553 180.524 39.6713 180.524 40.39V40.544C180.524 41.7467 180.802 42.6487 181.36 43.25C181.932 43.8367 182.768 44.13 183.868 44.13C184.249 44.13 184.674 44.086 185.144 43.998C185.628 43.8953 186.082 43.7267 186.508 43.492C186.816 43.316 187.087 43.2427 187.322 43.272C187.556 43.2867 187.74 43.3673 187.872 43.514C188.018 43.6607 188.106 43.844 188.136 44.064C188.165 44.2693 188.121 44.482 188.004 44.702C187.901 44.922 187.718 45.1127 187.454 45.274C186.94 45.5967 186.346 45.8387 185.672 46C185.012 46.1467 184.396 46.22 183.824 46.22ZM191.81 46.154C191.37 46.154 191.032 46.022 190.798 45.758C190.563 45.494 190.446 45.1273 190.446 44.658V36.584C190.446 36.1 190.563 35.7333 190.798 35.484C191.032 35.22 191.37 35.088 191.81 35.088C192.25 35.088 192.587 35.22 192.822 35.484C193.071 35.7333 193.196 36.1 193.196 36.584V44.658C193.196 45.1273 193.078 45.494 192.844 45.758C192.609 46.022 192.264 46.154 191.81 46.154ZM191.81 33.042C191.296 33.042 190.893 32.9173 190.6 32.668C190.321 32.404 190.182 32.0447 190.182 31.59C190.182 31.1207 190.321 30.7613 190.6 30.512C190.893 30.2627 191.296 30.138 191.81 30.138C192.338 30.138 192.741 30.2627 193.02 30.512C193.298 30.7613 193.438 31.1207 193.438 31.59C193.438 32.0447 193.298 32.404 193.02 32.668C192.741 32.9173 192.338 33.042 191.81 33.042ZM201.025 46.22C199.896 46.22 198.913 45.9927 198.077 45.538C197.241 45.0687 196.596 44.4087 196.141 43.558C195.686 42.7073 195.459 41.71 195.459 40.566C195.459 39.7007 195.584 38.9307 195.833 38.256C196.097 37.5667 196.471 36.9873 196.955 36.518C197.439 36.034 198.026 35.6673 198.715 35.418C199.404 35.154 200.174 35.022 201.025 35.022C201.509 35.022 202.03 35.088 202.587 35.22C203.159 35.352 203.694 35.572 204.193 35.88C204.428 36.0267 204.582 36.2027 204.655 36.408C204.728 36.6133 204.743 36.826 204.699 37.046C204.655 37.2513 204.56 37.4347 204.413 37.596C204.281 37.7427 204.112 37.838 203.907 37.882C203.702 37.9113 203.474 37.86 203.225 37.728C202.902 37.5373 202.572 37.398 202.235 37.31C201.898 37.2073 201.575 37.156 201.267 37.156C200.783 37.156 200.358 37.2367 199.991 37.398C199.624 37.5447 199.309 37.7647 199.045 38.058C198.796 38.3367 198.605 38.6887 198.473 39.114C198.341 39.5393 198.275 40.0307 198.275 40.588C198.275 41.6733 198.532 42.5313 199.045 43.162C199.573 43.778 200.314 44.086 201.267 44.086C201.575 44.086 201.89 44.042 202.213 43.954C202.55 43.866 202.888 43.7267 203.225 43.536C203.474 43.404 203.694 43.36 203.885 43.404C204.09 43.448 204.259 43.5507 204.391 43.712C204.523 43.8587 204.604 44.042 204.633 44.262C204.662 44.4673 204.633 44.6727 204.545 44.878C204.472 45.0833 204.325 45.252 204.105 45.384C203.621 45.6773 203.108 45.89 202.565 46.022C202.022 46.154 201.509 46.22 201.025 46.22ZM207.794 46.176C207.354 46.176 207.017 46.0587 206.782 45.824C206.547 45.5747 206.43 45.2227 206.43 44.768V31.7C206.43 31.2453 206.547 30.9007 206.782 30.666C207.017 30.4313 207.354 30.314 207.794 30.314C208.234 30.314 208.571 30.4313 208.806 30.666C209.055 30.9007 209.18 31.2453 209.18 31.7V37.398H208.872C209.195 36.6207 209.693 36.034 210.368 35.638C211.057 35.2273 211.835 35.022 212.7 35.022C213.565 35.022 214.277 35.1833 214.834 35.506C215.391 35.8287 215.809 36.32 216.088 36.98C216.367 37.6253 216.506 38.4467 216.506 39.444V44.768C216.506 45.2227 216.389 45.5747 216.154 45.824C215.919 46.0587 215.582 46.176 215.142 46.176C214.702 46.176 214.357 46.0587 214.108 45.824C213.873 45.5747 213.756 45.2227 213.756 44.768V39.576C213.756 38.74 213.595 38.1313 213.272 37.75C212.964 37.3687 212.48 37.178 211.82 37.178C211.013 37.178 210.368 37.4347 209.884 37.948C209.415 38.4467 209.18 39.114 209.18 39.95V44.768C209.18 45.7067 208.718 46.176 207.794 46.176ZM230.574 46.22C229.356 46.22 228.308 45.9927 227.428 45.538C226.548 45.0833 225.866 44.438 225.382 43.602C224.912 42.766 224.678 41.776 224.678 40.632C224.678 39.5173 224.905 38.542 225.36 37.706C225.829 36.87 226.467 36.2173 227.274 35.748C228.095 35.264 229.026 35.022 230.068 35.022C230.83 35.022 231.512 35.1467 232.114 35.396C232.73 35.6453 233.25 36.0047 233.676 36.474C234.116 36.9433 234.446 37.5153 234.666 38.19C234.9 38.85 235.018 39.598 235.018 40.434C235.018 40.698 234.922 40.9033 234.732 41.05C234.556 41.182 234.299 41.248 233.962 41.248H226.9V39.664H233.082L232.73 39.994C232.73 39.3193 232.627 38.7547 232.422 38.3C232.231 37.8453 231.945 37.5007 231.564 37.266C231.197 37.0167 230.735 36.892 230.178 36.892C229.562 36.892 229.034 37.0387 228.594 37.332C228.168 37.6107 227.838 38.014 227.604 38.542C227.384 39.0553 227.274 39.6713 227.274 40.39V40.544C227.274 41.7467 227.552 42.6487 228.11 43.25C228.682 43.8367 229.518 44.13 230.618 44.13C230.999 44.13 231.424 44.086 231.894 43.998C232.378 43.8953 232.832 43.7267 233.258 43.492C233.566 43.316 233.837 43.2427 234.072 43.272C234.306 43.2867 234.49 43.3673 234.622 43.514C234.768 43.6607 234.856 43.844 234.886 44.064C234.915 44.2693 234.871 44.482 234.754 44.702C234.651 44.922 234.468 45.1127 234.204 45.274C233.69 45.5967 233.096 45.8387 232.422 46C231.762 46.1467 231.146 46.22 230.574 46.22ZM238.604 46.176C238.149 46.176 237.797 46.0587 237.548 45.824C237.313 45.5747 237.196 45.2227 237.196 44.768V36.452C237.196 35.9973 237.313 35.6527 237.548 35.418C237.782 35.1833 238.112 35.066 238.538 35.066C238.963 35.066 239.293 35.1833 239.528 35.418C239.762 35.6527 239.88 35.9973 239.88 36.452V37.838H239.66C239.865 36.958 240.268 36.2907 240.87 35.836C241.471 35.3813 242.27 35.11 243.268 35.022C243.576 34.9927 243.818 35.0733 243.994 35.264C244.184 35.44 244.294 35.7187 244.324 36.1C244.353 36.4667 244.265 36.7673 244.06 37.002C243.869 37.222 243.576 37.354 243.18 37.398L242.696 37.442C241.801 37.53 241.126 37.8087 240.672 38.278C240.217 38.7327 239.99 39.378 239.99 40.214V44.768C239.99 45.2227 239.872 45.5747 239.638 45.824C239.403 46.0587 239.058 46.176 238.604 46.176ZM249.641 46.22C249.011 46.22 248.343 46.154 247.639 46.022C246.935 45.89 246.305 45.6627 245.747 45.34C245.513 45.1933 245.344 45.0247 245.241 44.834C245.153 44.6287 245.117 44.4307 245.131 44.24C245.161 44.0347 245.234 43.8587 245.351 43.712C245.483 43.5653 245.645 43.47 245.835 43.426C246.041 43.382 246.261 43.4187 246.495 43.536C247.082 43.8147 247.632 44.0127 248.145 44.13C248.659 44.2327 249.165 44.284 249.663 44.284C250.367 44.284 250.888 44.1667 251.225 43.932C251.577 43.6827 251.753 43.36 251.753 42.964C251.753 42.6267 251.636 42.37 251.401 42.194C251.181 42.0033 250.844 41.864 250.389 41.776L248.189 41.358C247.28 41.182 246.583 40.852 246.099 40.368C245.63 39.8693 245.395 39.2313 245.395 38.454C245.395 37.75 245.586 37.1413 245.967 36.628C246.363 36.1147 246.906 35.7187 247.595 35.44C248.285 35.1613 249.077 35.022 249.971 35.022C250.617 35.022 251.218 35.0953 251.775 35.242C252.347 35.374 252.897 35.5867 253.425 35.88C253.645 35.9973 253.792 36.1513 253.865 36.342C253.953 36.5327 253.975 36.7307 253.931 36.936C253.887 37.1267 253.799 37.3027 253.667 37.464C253.535 37.6107 253.367 37.706 253.161 37.75C252.971 37.7793 252.751 37.7353 252.501 37.618C252.047 37.3833 251.607 37.2147 251.181 37.112C250.771 37.0093 250.375 36.958 249.993 36.958C249.275 36.958 248.739 37.0827 248.387 37.332C248.05 37.5813 247.881 37.9113 247.881 38.322C247.881 38.63 247.984 38.8867 248.189 39.092C248.395 39.2973 248.71 39.4367 249.135 39.51L251.335 39.928C252.289 40.104 253.007 40.4267 253.491 40.896C253.99 41.3653 254.239 41.996 254.239 42.788C254.239 43.8587 253.821 44.702 252.985 45.318C252.149 45.9193 251.035 46.22 249.641 46.22ZM261.266 46.22C260.313 46.22 259.514 46.0587 258.868 45.736C258.238 45.4133 257.768 44.944 257.46 44.328C257.152 43.6973 256.998 42.92 256.998 41.996V37.31H255.854C255.502 37.31 255.231 37.222 255.04 37.046C254.85 36.8553 254.754 36.5987 254.754 36.276C254.754 35.9387 254.85 35.682 255.04 35.506C255.231 35.33 255.502 35.242 255.854 35.242H256.998V33.24C256.998 32.7853 257.116 32.4407 257.35 32.206C257.6 31.9713 257.944 31.854 258.384 31.854C258.824 31.854 259.162 31.9713 259.396 32.206C259.631 32.4407 259.748 32.7853 259.748 33.24V35.242H262.08C262.432 35.242 262.704 35.33 262.894 35.506C263.085 35.682 263.18 35.9387 263.18 36.276C263.18 36.5987 263.085 36.8553 262.894 37.046C262.704 37.222 262.432 37.31 262.08 37.31H259.748V41.842C259.748 42.546 259.902 43.074 260.21 43.426C260.518 43.778 261.017 43.954 261.706 43.954C261.956 43.954 262.176 43.932 262.366 43.888C262.557 43.844 262.726 43.8147 262.872 43.8C263.048 43.7853 263.195 43.844 263.312 43.976C263.43 44.0933 263.488 44.3427 263.488 44.724C263.488 45.0173 263.437 45.2813 263.334 45.516C263.246 45.736 263.078 45.89 262.828 45.978C262.638 46.0367 262.388 46.088 262.08 46.132C261.772 46.1907 261.501 46.22 261.266 46.22ZM269.976 46.22C268.759 46.22 267.71 45.9927 266.83 45.538C265.95 45.0833 265.268 44.438 264.784 43.602C264.315 42.766 264.08 41.776 264.08 40.632C264.08 39.5173 264.307 38.542 264.762 37.706C265.231 36.87 265.869 36.2173 266.676 35.748C267.497 35.264 268.429 35.022 269.47 35.022C270.233 35.022 270.915 35.1467 271.516 35.396C272.132 35.6453 272.653 36.0047 273.078 36.474C273.518 36.9433 273.848 37.5153 274.068 38.19C274.303 38.85 274.42 39.598 274.42 40.434C274.42 40.698 274.325 40.9033 274.134 41.05C273.958 41.182 273.701 41.248 273.364 41.248H266.302V39.664H272.484L272.132 39.994C272.132 39.3193 272.029 38.7547 271.824 38.3C271.633 37.8453 271.347 37.5007 270.966 37.266C270.599 37.0167 270.137 36.892 269.58 36.892C268.964 36.892 268.436 37.0387 267.996 37.332C267.571 37.6107 267.241 38.014 267.006 38.542C266.786 39.0553 266.676 39.6713 266.676 40.39V40.544C266.676 41.7467 266.955 42.6487 267.512 43.25C268.084 43.8367 268.92 44.13 270.02 44.13C270.401 44.13 270.827 44.086 271.296 43.998C271.78 43.8953 272.235 43.7267 272.66 43.492C272.968 43.316 273.239 43.2427 273.474 43.272C273.709 43.2867 273.892 43.3673 274.024 43.514C274.171 43.6607 274.259 43.844 274.288 44.064C274.317 44.2693 274.273 44.482 274.156 44.702C274.053 44.922 273.87 45.1127 273.606 45.274C273.093 45.5967 272.499 45.8387 271.824 46C271.164 46.1467 270.548 46.22 269.976 46.22ZM280.272 46.22C279.055 46.22 278.138 45.8753 277.522 45.186C276.906 44.482 276.598 43.4553 276.598 42.106V31.7C276.598 31.2453 276.715 30.9007 276.95 30.666C277.185 30.4313 277.522 30.314 277.962 30.314C278.402 30.314 278.739 30.4313 278.974 30.666C279.223 30.9007 279.348 31.2453 279.348 31.7V41.974C279.348 42.6487 279.487 43.1473 279.766 43.47C280.059 43.7927 280.47 43.954 280.998 43.954C281.115 43.954 281.225 43.954 281.328 43.954C281.431 43.9393 281.533 43.9247 281.636 43.91C281.841 43.8807 281.981 43.9393 282.054 44.086C282.127 44.218 282.164 44.4967 282.164 44.922C282.164 45.2887 282.091 45.5747 281.944 45.78C281.797 45.9853 281.555 46.11 281.218 46.154C281.071 46.1687 280.917 46.1833 280.756 46.198C280.595 46.2127 280.433 46.22 280.272 46.22ZM287.297 46.22C286.08 46.22 285.163 45.8753 284.547 45.186C283.931 44.482 283.623 43.4553 283.623 42.106V31.7C283.623 31.2453 283.741 30.9007 283.975 30.666C284.21 30.4313 284.547 30.314 284.987 30.314C285.427 30.314 285.765 30.4313 285.999 30.666C286.249 30.9007 286.373 31.2453 286.373 31.7V41.974C286.373 42.6487 286.513 43.1473 286.791 43.47C287.085 43.7927 287.495 43.954 288.023 43.954C288.141 43.954 288.251 43.954 288.353 43.954C288.456 43.9393 288.559 43.9247 288.661 43.91C288.867 43.8807 289.006 43.9393 289.079 44.086C289.153 44.218 289.189 44.4967 289.189 44.922C289.189 45.2887 289.116 45.5747 288.969 45.78C288.823 45.9853 288.581 46.11 288.243 46.154C288.097 46.1687 287.943 46.1833 287.781 46.198C287.62 46.2127 287.459 46.22 287.297 46.22ZM295.297 46.22C294.344 46.22 293.545 46.0587 292.899 45.736C292.269 45.4133 291.799 44.944 291.491 44.328C291.183 43.6973 291.029 42.92 291.029 41.996V37.31H289.885C289.533 37.31 289.262 37.222 289.071 37.046C288.881 36.8553 288.785 36.5987 288.785 36.276C288.785 35.9387 288.881 35.682 289.071 35.506C289.262 35.33 289.533 35.242 289.885 35.242H291.029V33.24C291.029 32.7853 291.147 32.4407 291.381 32.206C291.631 31.9713 291.975 31.854 292.415 31.854C292.855 31.854 293.193 31.9713 293.427 32.206C293.662 32.4407 293.779 32.7853 293.779 33.24V35.242H296.111C296.463 35.242 296.735 35.33 296.925 35.506C297.116 35.682 297.211 35.9387 297.211 36.276C297.211 36.5987 297.116 36.8553 296.925 37.046C296.735 37.222 296.463 37.31 296.111 37.31H293.779V41.842C293.779 42.546 293.933 43.074 294.241 43.426C294.549 43.778 295.048 43.954 295.737 43.954C295.987 43.954 296.207 43.932 296.397 43.888C296.588 43.844 296.757 43.8147 296.903 43.8C297.079 43.7853 297.226 43.844 297.343 43.976C297.461 44.0933 297.519 44.3427 297.519 44.724C297.519 45.0173 297.468 45.2813 297.365 45.516C297.277 45.736 297.109 45.89 296.859 45.978C296.669 46.0367 296.419 46.088 296.111 46.132C295.803 46.1907 295.532 46.22 295.297 46.22ZM300.176 41.534C299.897 41.534 299.677 41.446 299.516 41.27C299.369 41.094 299.281 40.8447 299.252 40.522L298.592 32.118C298.548 31.5753 298.665 31.1427 298.944 30.82C299.222 30.4827 299.633 30.314 300.176 30.314C300.704 30.314 301.1 30.4827 301.364 30.82C301.642 31.1427 301.76 31.5753 301.716 32.118L301.056 40.522C301.041 40.8447 300.953 41.094 300.792 41.27C300.645 41.446 300.44 41.534 300.176 41.534ZM300.176 46.11C299.677 46.11 299.274 45.956 298.966 45.648C298.672 45.34 298.526 44.944 298.526 44.46C298.526 43.9907 298.672 43.6093 298.966 43.316C299.274 43.008 299.677 42.854 300.176 42.854C300.689 42.854 301.085 43.008 301.364 43.316C301.657 43.6093 301.804 43.9907 301.804 44.46C301.804 44.944 301.657 45.34 301.364 45.648C301.085 45.956 300.689 46.11 300.176 46.11Z" fill="white"/>
</g>
<defs>
<filter id="filter0_d_609_17301" x="0" y="0" width="343" height="90" filterUnits="userSpaceOnUse" color-interpolation-filters="sRGB">
<feFlood flood-opacity="0" result="BackgroundImageFix"/>
<feColorMatrix in="SourceAlpha" type="matrix" values="0 0 0 0 0 0 0 0 0 0 0 0 0 0 0 0 0 0 127 0" result="hardAlpha"/>
<feOffset dy="6"/>
<feGaussianBlur stdDeviation="5"/>
<feComposite in2="hardAlpha" operator="out"/>
<feColorMatrix type="matrix" values="0 0 0 0 0 0 0 0 0 0 0 0 0 0 0 0 0 0 0.2 0"/>
<feBlend mode="normal" in2="BackgroundImageFix" result="effect1_dropShadow_609_17301"/>
<feBlend mode="normal" in="SourceGraphic" in2="effect1_dropShadow_609_17301" result="shape"/>
</filter>
</defs>
</svg>
