<svg width="136" height="136" viewBox="0 0 136 136" fill="none" xmlns="http://www.w3.org/2000/svg">
<rect x="4" y="4" width="128" height="128" rx="64" fill="#797EF3"/>
<rect x="4" y="4" width="128" height="128" rx="64" stroke="#ECEEFE" stroke-width="8"/>
<mask id="mask0_6194_22728" style="mask-type:alpha" maskUnits="userSpaceOnUse" x="24" y="24" width="88" height="88">
<rect x="24" y="24" width="88" height="88" fill="#D9D9D9"/>
</mask>
<g mask="url(#mask0_6194_22728)">
<path d="M68.0072 68.0072C63.9738 68.0072 60.5211 66.5711 57.6488 63.6988C54.7766 60.8266 53.3405 57.3738 53.3405 53.3405C53.3405 49.3072 54.7766 45.8544 57.6488 42.9822C60.5211 40.1099 63.9738 38.6738 68.0072 38.6738C72.0405 38.6738 75.4933 40.1099 78.3655 42.9822C81.2377 45.8544 82.6738 49.3072 82.6738 53.3405C82.6738 57.3738 81.2377 60.8266 78.3655 63.6988C75.4933 66.5711 72.0405 68.0072 68.0072 68.0072ZM38.6738 97.3405V87.0738C38.6738 84.9961 39.2086 83.0863 40.278 81.3447C41.3474 79.603 42.7683 78.2738 44.5405 77.3572C48.3294 75.4627 52.1794 74.0419 56.0905 73.0947C60.0016 72.1474 63.9738 71.6738 68.0072 71.6738C72.0405 71.6738 76.0127 72.1474 79.9238 73.0947C83.8349 74.0419 87.685 75.4627 91.4738 77.3572C93.2461 78.2738 94.6669 79.603 95.7363 81.3447C96.8058 83.0863 97.3405 84.9961 97.3405 87.0738V97.3405H38.6738Z" fill="#ECEEFE"/>
</g>
</svg>
